<svg xmlns="http://www.w3.org/2000/svg" xmlns:xlink="http://www.w3.org/1999/xlink" width="162" zoomAndPan="magnify" viewBox="0 0 121.5 37.5" height="50" preserveAspectRatio="xMidYMid meet" version="1.0"><defs><g/></defs><g fill="#ffffff" fill-opacity="1"><g transform="translate(10.334709, 24.712468)"><g><path d="M 3.953125 -10.984375 C 4.304688 -11.066406 4.707031 -11.109375 5.15625 -11.109375 C 5.25 -11.109375 5.453125 -11.101562 5.765625 -11.09375 C 6.078125 -11.082031 6.425781 -11.007812 6.8125 -10.875 C 7.84375 -10.539062 8.609375 -9.910156 9.109375 -8.984375 C 9.617188 -8.066406 9.875 -6.984375 9.875 -5.734375 C 9.875 -5.585938 9.875 -5.445312 9.875 -5.3125 C 9.84375 -4.289062 9.625 -3.390625 9.21875 -2.609375 C 9 -2.179688 8.679688 -1.789062 8.265625 -1.4375 C 7.847656 -1.09375 7.421875 -0.851562 6.984375 -0.71875 C 6.847656 -0.664062 6.769531 -0.628906 6.75 -0.609375 C 6.726562 -0.597656 6.71875 -0.582031 6.71875 -0.5625 C 6.71875 -0.53125 6.722656 -0.503906 6.734375 -0.484375 C 6.890625 0.109375 6.96875 0.46875 6.96875 0.59375 C 6.96875 0.613281 6.96875 0.625 6.96875 0.625 C 6.925781 0.65625 6.648438 0.722656 6.140625 0.828125 C 5.796875 0.898438 5.5625 0.9375 5.4375 0.9375 C 5.375 0.9375 5.335938 0.929688 5.328125 0.921875 C 5.296875 0.835938 5.207031 0.59375 5.0625 0.1875 L 4.859375 -0.4375 L 4.375 -0.4375 C 3.226562 -0.445312 2.320312 -0.800781 1.65625 -1.5 C 1.1875 -1.957031 0.84375 -2.570312 0.625 -3.34375 C 0.425781 -4.007812 0.328125 -4.691406 0.328125 -5.390625 C 0.328125 -5.640625 0.335938 -5.882812 0.359375 -6.125 C 0.617188 -8.882812 1.816406 -10.503906 3.953125 -10.984375 Z M 5.90625 -8.828125 C 5.695312 -8.921875 5.472656 -8.976562 5.234375 -9 C 5.160156 -9.007812 5.078125 -9.015625 4.984375 -9.015625 C 4.316406 -9.015625 3.800781 -8.71875 3.4375 -8.125 C 3.082031 -7.53125 2.90625 -6.6875 2.90625 -5.59375 C 2.90625 -5.457031 2.90625 -5.328125 2.90625 -5.203125 C 2.945312 -4.210938 3.117188 -3.503906 3.421875 -3.078125 C 3.523438 -2.941406 3.664062 -2.816406 3.84375 -2.703125 C 4.019531 -2.585938 4.132812 -2.53125 4.1875 -2.53125 C 4.207031 -2.53125 4.222656 -2.535156 4.234375 -2.546875 C 4.234375 -2.546875 4.234375 -2.554688 4.234375 -2.578125 C 4.234375 -2.648438 4.191406 -2.851562 4.109375 -3.1875 C 4.023438 -3.53125 3.984375 -3.726562 3.984375 -3.78125 C 3.984375 -3.789062 3.984375 -3.796875 3.984375 -3.796875 C 3.992188 -3.804688 4.273438 -3.878906 4.828125 -4.015625 C 5.378906 -4.160156 5.671875 -4.234375 5.703125 -4.234375 C 5.722656 -4.234375 5.804688 -3.992188 5.953125 -3.515625 C 6.085938 -3.046875 6.175781 -2.796875 6.21875 -2.765625 C 6.226562 -2.753906 6.238281 -2.75 6.25 -2.75 C 6.289062 -2.75 6.351562 -2.785156 6.4375 -2.859375 C 6.53125 -2.929688 6.632812 -3.035156 6.75 -3.171875 C 6.863281 -3.304688 6.945312 -3.425781 7 -3.53125 C 7.207031 -3.9375 7.3125 -4.484375 7.3125 -5.171875 C 7.3125 -5.296875 7.304688 -5.425781 7.296875 -5.5625 C 7.242188 -6.539062 7.113281 -7.28125 6.90625 -7.78125 C 6.8125 -7.988281 6.664062 -8.191406 6.46875 -8.390625 C 6.269531 -8.597656 6.082031 -8.742188 5.90625 -8.828125 Z M 5.90625 -8.828125 "/></g></g></g><g fill="#ffffff" fill-opacity="1"><g transform="translate(21.43197, 24.712468)"><g><path d="M 0.734375 -7.1875 L 0.703125 -10.90625 L 3.15625 -10.90625 L 3.171875 -7.46875 C 3.179688 -5.914062 3.191406 -4.925781 3.203125 -4.5 C 3.222656 -4.082031 3.257812 -3.800781 3.3125 -3.65625 C 3.5625 -2.914062 4.125 -2.546875 5 -2.546875 C 5.78125 -2.546875 6.304688 -2.878906 6.578125 -3.546875 C 6.648438 -3.734375 6.691406 -3.992188 6.703125 -4.328125 C 6.722656 -4.671875 6.738281 -5.707031 6.75 -7.4375 L 6.765625 -10.90625 L 9.203125 -10.90625 L 9.1875 -7.21875 C 9.175781 -4.769531 9.128906 -3.390625 9.046875 -3.078125 C 8.878906 -2.347656 8.617188 -1.796875 8.265625 -1.421875 C 7.921875 -1.046875 7.410156 -0.757812 6.734375 -0.5625 C 6.492188 -0.488281 6.289062 -0.445312 6.125 -0.4375 C 5.96875 -0.425781 5.765625 -0.421875 5.515625 -0.421875 C 5.359375 -0.421875 5.171875 -0.421875 4.953125 -0.421875 C 4.128906 -0.421875 3.566406 -0.453125 3.265625 -0.515625 C 2.015625 -0.828125 1.21875 -1.65625 0.875 -3 C 0.820312 -3.207031 0.785156 -3.550781 0.765625 -4.03125 C 0.753906 -4.507812 0.742188 -5.5625 0.734375 -7.1875 Z M 0.734375 -7.1875 "/></g></g></g><g fill="#ffffff" fill-opacity="1"><g transform="translate(32.094398, 24.712468)"><g><path d="M 0.703125 -0.640625 L 0.703125 -10.9375 L 8.25 -10.9375 L 8.25 -8.953125 L 3.015625 -8.953125 L 3.015625 -6.9375 L 7.828125 -6.9375 L 7.828125 -4.890625 L 3.015625 -4.890625 L 3.015625 -2.703125 L 8.390625 -2.703125 L 8.390625 -0.640625 Z M 0.703125 -0.640625 "/></g></g></g><g fill="#ffffff" fill-opacity="1"><g transform="translate(41.661062, 24.712468)"><g><path d="M 3.109375 -10.96875 C 3.390625 -11.039062 3.8125 -11.078125 4.375 -11.078125 C 4.507812 -11.078125 4.648438 -11.078125 4.796875 -11.078125 C 5.304688 -11.054688 5.664062 -11.035156 5.875 -11.015625 C 6.09375 -10.992188 6.332031 -10.941406 6.59375 -10.859375 C 7.269531 -10.660156 7.785156 -10.410156 8.140625 -10.109375 L 8.34375 -9.953125 L 7.921875 -9.109375 C 7.640625 -8.535156 7.492188 -8.25 7.484375 -8.25 C 7.472656 -8.25 7.347656 -8.300781 7.109375 -8.40625 C 6.378906 -8.71875 5.671875 -8.914062 4.984375 -9 C 4.816406 -9.019531 4.664062 -9.03125 4.53125 -9.03125 C 3.988281 -9.03125 3.613281 -8.890625 3.40625 -8.609375 C 3.28125 -8.460938 3.21875 -8.300781 3.21875 -8.125 C 3.21875 -8.125 3.21875 -8.078125 3.21875 -7.984375 C 3.226562 -7.890625 3.296875 -7.773438 3.421875 -7.640625 C 3.578125 -7.503906 3.78125 -7.378906 4.03125 -7.265625 C 4.289062 -7.160156 4.757812 -7.007812 5.4375 -6.8125 C 6.363281 -6.539062 7.015625 -6.296875 7.390625 -6.078125 C 7.765625 -5.867188 8.050781 -5.578125 8.25 -5.203125 C 8.476562 -4.742188 8.59375 -4.238281 8.59375 -3.6875 C 8.59375 -3.394531 8.566406 -3.097656 8.515625 -2.796875 C 8.265625 -1.648438 7.535156 -0.914062 6.328125 -0.59375 C 5.941406 -0.488281 5.453125 -0.4375 4.859375 -0.4375 C 4.742188 -0.4375 4.46875 -0.441406 4.03125 -0.453125 C 3.601562 -0.460938 3.101562 -0.546875 2.53125 -0.703125 C 2.226562 -0.773438 1.882812 -0.898438 1.5 -1.078125 C 1.113281 -1.253906 0.835938 -1.40625 0.671875 -1.53125 L 0.484375 -1.703125 L 0.8125 -2.40625 C 1.007812 -2.851562 1.15625 -3.160156 1.25 -3.328125 L 1.390625 -3.546875 L 2.046875 -3.234375 C 3.054688 -2.796875 3.867188 -2.578125 4.484375 -2.578125 C 4.523438 -2.578125 4.5625 -2.578125 4.59375 -2.578125 C 4.96875 -2.578125 5.25 -2.628906 5.4375 -2.734375 C 5.8125 -2.929688 6 -3.1875 6 -3.5 C 6 -3.539062 5.992188 -3.585938 5.984375 -3.640625 C 5.953125 -3.921875 5.800781 -4.132812 5.53125 -4.28125 C 5.269531 -4.4375 4.734375 -4.617188 3.921875 -4.828125 C 2.804688 -5.085938 2.015625 -5.390625 1.546875 -5.734375 C 1.085938 -6.078125 0.789062 -6.566406 0.65625 -7.203125 C 0.613281 -7.421875 0.59375 -7.632812 0.59375 -7.84375 C 0.59375 -8.332031 0.707031 -8.820312 0.9375 -9.3125 C 1.320312 -10.125 2.046875 -10.675781 3.109375 -10.96875 Z M 3.109375 -10.96875 "/></g></g></g><g fill="#ffffff" fill-opacity="1"><g transform="translate(51.43645, 24.712468)"><g><path d="M 3.1875 -0.609375 L 3.1875 -8.828125 L 0.046875 -8.828125 L 0.046875 -10.9375 L 8.6875 -10.9375 L 8.6875 -8.828125 L 5.625 -8.828125 L 5.625 -0.609375 Z M 3.1875 -0.609375 "/></g></g></g><g fill="#ffffff" fill-opacity="1"><g transform="translate(60.975905, 24.712468)"><g/></g></g><g fill="#ffffff" fill-opacity="1"><g transform="translate(66.020375, 24.712468)"><g/></g></g><g fill="#ffffff" fill-opacity="1"><g transform="translate(71.064844, 24.712468)"><g/></g></g><g fill="#ffffff" fill-opacity="1"><g transform="translate(76.113911, 24.712468)"><g><path d="M 0.703125 -0.609375 L 0.703125 -10.90625 L 3.15625 -10.90625 L 3.15625 -8.953125 L 3.171875 -7 L 4.265625 -8.15625 C 5.015625 -8.9375 5.617188 -9.585938 6.078125 -10.109375 L 6.78125 -10.9375 L 8.0625 -10.875 C 8.914062 -10.84375 9.351562 -10.820312 9.375 -10.8125 C 9.375 -10.75 9.203125 -10.476562 8.859375 -10 C 8.515625 -9.53125 8.148438 -9.054688 7.765625 -8.578125 C 7.347656 -8.046875 6.863281 -7.519531 6.3125 -7 L 5.53125 -6.234375 L 5.75 -6 C 6.125 -5.550781 6.785156 -4.675781 7.734375 -3.375 C 8.679688 -2.082031 9.265625 -1.234375 9.484375 -0.828125 L 9.609375 -0.609375 L 6.90625 -0.609375 L 6.359375 -1.3125 C 5.960938 -1.800781 5.5 -2.398438 4.96875 -3.109375 C 4.4375 -3.816406 4.109375 -4.269531 3.984375 -4.46875 C 3.859375 -4.675781 3.769531 -4.78125 3.71875 -4.78125 C 3.675781 -4.78125 3.566406 -4.726562 3.390625 -4.625 L 3.15625 -4.4375 L 3.15625 -0.609375 Z M 0.703125 -0.609375 "/></g></g></g><g fill="#ffffff" fill-opacity="1"><g transform="translate(86.376299, 24.712468)"><g><path d="M 0.703125 -0.609375 L 0.703125 -10.90625 L 3.0625 -10.90625 L 3.0625 -0.609375 Z M 0.703125 -0.609375 "/></g></g></g><g fill="#ffffff" fill-opacity="1"><g transform="translate(90.898974, 24.712468)"><g><path d="M 0.703125 -0.609375 L 0.703125 -10.9375 L 3.265625 -10.90625 C 4.691406 -10.882812 5.578125 -10.847656 5.921875 -10.796875 C 6.265625 -10.753906 6.6875 -10.617188 7.1875 -10.390625 C 7.695312 -10.148438 8.109375 -9.816406 8.421875 -9.390625 C 8.734375 -8.972656 8.984375 -8.429688 9.171875 -7.765625 C 9.285156 -7.304688 9.34375 -6.75 9.34375 -6.09375 C 9.34375 -4.851562 9.140625 -3.8125 8.734375 -2.96875 C 8.335938 -2.132812 7.765625 -1.535156 7.015625 -1.171875 C 6.546875 -0.941406 6.019531 -0.789062 5.4375 -0.71875 C 4.863281 -0.644531 3.921875 -0.609375 2.609375 -0.609375 Z M 4.984375 -8.828125 C 4.679688 -8.910156 4.289062 -8.953125 3.8125 -8.953125 L 3.078125 -8.953125 L 3.078125 -2.53125 L 3.875 -2.578125 C 4.65625 -2.597656 5.253906 -2.738281 5.671875 -3 C 6.085938 -3.257812 6.390625 -3.65625 6.578125 -4.1875 C 6.773438 -4.726562 6.875 -5.296875 6.875 -5.890625 C 6.875 -6.023438 6.867188 -6.160156 6.859375 -6.296875 C 6.804688 -7.015625 6.628906 -7.578125 6.328125 -7.984375 C 6.035156 -8.398438 5.585938 -8.679688 4.984375 -8.828125 Z M 4.984375 -8.828125 "/></g></g></g><g fill="#ffffff" fill-opacity="1"><g transform="translate(101.439659, 24.712468)"><g><path d="M 3.109375 -10.96875 C 3.390625 -11.039062 3.8125 -11.078125 4.375 -11.078125 C 4.507812 -11.078125 4.648438 -11.078125 4.796875 -11.078125 C 5.304688 -11.054688 5.664062 -11.035156 5.875 -11.015625 C 6.09375 -10.992188 6.332031 -10.941406 6.59375 -10.859375 C 7.269531 -10.660156 7.785156 -10.410156 8.140625 -10.109375 L 8.34375 -9.953125 L 7.921875 -9.109375 C 7.640625 -8.535156 7.492188 -8.25 7.484375 -8.25 C 7.472656 -8.25 7.347656 -8.300781 7.109375 -8.40625 C 6.378906 -8.71875 5.671875 -8.914062 4.984375 -9 C 4.816406 -9.019531 4.664062 -9.03125 4.53125 -9.03125 C 3.988281 -9.03125 3.613281 -8.890625 3.40625 -8.609375 C 3.28125 -8.460938 3.21875 -8.300781 3.21875 -8.125 C 3.21875 -8.125 3.21875 -8.078125 3.21875 -7.984375 C 3.226562 -7.890625 3.296875 -7.773438 3.421875 -7.640625 C 3.578125 -7.503906 3.78125 -7.378906 4.03125 -7.265625 C 4.289062 -7.160156 4.757812 -7.007812 5.4375 -6.8125 C 6.363281 -6.539062 7.015625 -6.296875 7.390625 -6.078125 C 7.765625 -5.867188 8.050781 -5.578125 8.25 -5.203125 C 8.476562 -4.742188 8.59375 -4.238281 8.59375 -3.6875 C 8.59375 -3.394531 8.566406 -3.097656 8.515625 -2.796875 C 8.265625 -1.648438 7.535156 -0.914062 6.328125 -0.59375 C 5.941406 -0.488281 5.453125 -0.4375 4.859375 -0.4375 C 4.742188 -0.4375 4.46875 -0.441406 4.03125 -0.453125 C 3.601562 -0.460938 3.101562 -0.546875 2.53125 -0.703125 C 2.226562 -0.773438 1.882812 -0.898438 1.5 -1.078125 C 1.113281 -1.253906 0.835938 -1.40625 0.671875 -1.53125 L 0.484375 -1.703125 L 0.8125 -2.40625 C 1.007812 -2.851562 1.15625 -3.160156 1.25 -3.328125 L 1.390625 -3.546875 L 2.046875 -3.234375 C 3.054688 -2.796875 3.867188 -2.578125 4.484375 -2.578125 C 4.523438 -2.578125 4.5625 -2.578125 4.59375 -2.578125 C 4.96875 -2.578125 5.25 -2.628906 5.4375 -2.734375 C 5.8125 -2.929688 6 -3.1875 6 -3.5 C 6 -3.539062 5.992188 -3.585938 5.984375 -3.640625 C 5.953125 -3.921875 5.800781 -4.132812 5.53125 -4.28125 C 5.269531 -4.4375 4.734375 -4.617188 3.921875 -4.828125 C 2.804688 -5.085938 2.015625 -5.390625 1.546875 -5.734375 C 1.085938 -6.078125 0.789062 -6.566406 0.65625 -7.203125 C 0.613281 -7.421875 0.59375 -7.632812 0.59375 -7.84375 C 0.59375 -8.332031 0.707031 -8.820312 0.9375 -9.3125 C 1.320312 -10.125 2.046875 -10.675781 3.109375 -10.96875 Z M 3.109375 -10.96875 "/></g></g></g><g fill="#ffbd59" fill-opacity="1"><g transform="translate(60.338831, 26.336145)"><g><path d="M 7.390625 -14.984375 L 7.890625 -15.5 L 11.609375 -15.453125 L 11.609375 -14.03125 C 11.597656 -13.019531 11.582031 -12.488281 11.5625 -12.4375 L 11.5625 -5.375 L 12.375 -5.390625 L 12.5625 -5.390625 C 12.664062 -5.421875 12.742188 -5.4375 12.796875 -5.4375 C 12.847656 -5.4375 12.90625 -5.425781 12.96875 -5.40625 C 13.03125 -5.394531 13.066406 -5.382812 13.078125 -5.375 C 13.097656 -5.375 13.125 -5.347656 13.15625 -5.296875 C 13.1875 -5.253906 13.203125 -5.222656 13.203125 -5.203125 C 13.203125 -5.179688 13.207031 -5.125 13.21875 -5.03125 C 13.238281 -4.9375 13.25 -4.859375 13.25 -4.796875 C 13.25 -4.734375 13.253906 -4.625 13.265625 -4.46875 L 13.265625 -4.21875 C 13.285156 -4.113281 13.300781 -3.859375 13.3125 -3.453125 C 13.320312 -3.046875 13.335938 -2.757812 13.359375 -2.59375 L 13.421875 -1.65625 L 12.625 -1.671875 L 11.65625 -1.671875 C 11.59375 -1.671875 11.554688 -1.601562 11.546875 -1.46875 C 11.546875 -1.34375 11.546875 -1.179688 11.546875 -0.984375 C 11.546875 -0.804688 11.546875 -0.5625 11.546875 -0.25 C 11.546875 0.65625 11.515625 1.144531 11.453125 1.21875 C 11.441406 1.25 11.410156 1.265625 11.359375 1.265625 C 11.316406 1.265625 11.265625 1.25 11.203125 1.21875 C 11.140625 1.1875 11.109375 1.164062 11.109375 1.15625 C 11.109375 1.144531 11.140625 1.132812 11.203125 1.125 C 11.234375 1.09375 11.25 1.0625 11.25 1.03125 C 11.25 1.019531 11.234375 1.015625 11.203125 1.015625 C 11.140625 1.015625 11.0625 1.054688 10.96875 1.140625 C 10.894531 1.234375 10.773438 1.28125 10.609375 1.28125 C 10.441406 1.28125 10.300781 1.242188 10.1875 1.171875 C 10.15625 1.148438 10.132812 1.140625 10.125 1.140625 C 10.125 1.140625 10.113281 1.140625 10.09375 1.140625 C 10.082031 1.140625 10.078125 1.15625 10.078125 1.1875 C 10.078125 1.25 10.035156 1.285156 9.953125 1.296875 C 9.867188 1.304688 9.816406 1.3125 9.796875 1.3125 C 9.679688 1.3125 9.609375 1.28125 9.578125 1.21875 C 9.523438 1.1875 9.265625 1.171875 8.796875 1.171875 C 8.335938 1.171875 8.109375 1.148438 8.109375 1.109375 L 8.109375 1.078125 C 8.109375 1.066406 8.097656 1.0625 8.078125 1.0625 C 8.066406 1.0625 8.035156 1.082031 7.984375 1.125 C 7.972656 1.132812 7.96875 1.140625 7.96875 1.140625 C 7.945312 1.140625 7.929688 1.082031 7.921875 0.96875 C 7.898438 0.882812 7.890625 0.738281 7.890625 0.53125 C 7.890625 0.1875 7.90625 -0.285156 7.9375 -0.890625 L 7.96875 -1.359375 L 8.078125 -0.59375 L 8.109375 -1.109375 C 8.109375 -1.410156 8.082031 -1.5625 8.03125 -1.5625 C 8 -1.539062 7.976562 -1.53125 7.96875 -1.53125 C 7.945312 -1.53125 7.929688 -1.539062 7.921875 -1.5625 C 7.921875 -1.601562 7.578125 -1.628906 6.890625 -1.640625 C 6.203125 -1.660156 5.585938 -1.675781 5.046875 -1.6875 C 4.515625 -1.695312 4.171875 -1.703125 4.015625 -1.703125 C 3.316406 -1.703125 2.628906 -1.6875 1.953125 -1.65625 L 1.125 -1.625 L 1.140625 -2.890625 C 1.171875 -3.796875 1.195312 -4.398438 1.21875 -4.703125 C 1.226562 -5.066406 1.25 -5.25 1.28125 -5.25 L 1.3125 -5.25 C 1.34375 -5.25 1.359375 -5.253906 1.359375 -5.265625 C 1.367188 -5.285156 1.382812 -5.328125 1.40625 -5.390625 C 1.4375 -5.492188 1.472656 -5.546875 1.515625 -5.546875 C 1.523438 -5.546875 1.539062 -5.539062 1.5625 -5.53125 C 1.5625 -5.519531 1.566406 -5.515625 1.578125 -5.515625 C 1.609375 -5.515625 1.648438 -5.539062 1.703125 -5.59375 C 1.710938 -5.613281 1.71875 -5.628906 1.71875 -5.640625 C 1.71875 -5.640625 1.710938 -5.640625 1.703125 -5.640625 C 1.703125 -5.640625 1.6875 -5.632812 1.65625 -5.625 C 1.625 -5.601562 1.597656 -5.59375 1.578125 -5.59375 C 1.566406 -5.59375 1.5625 -5.601562 1.5625 -5.625 C 1.5625 -5.65625 1.625 -5.769531 1.75 -5.96875 C 1.78125 -6.0625 1.816406 -6.132812 1.859375 -6.1875 C 1.898438 -6.238281 1.9375 -6.265625 1.96875 -6.265625 C 2 -6.265625 2.054688 -6.3125 2.140625 -6.40625 C 2.222656 -6.507812 2.320312 -6.660156 2.4375 -6.859375 C 2.644531 -7.203125 2.789062 -7.414062 2.875 -7.5 L 2.984375 -7.9375 L 2.59375 -7.546875 C 2.59375 -7.566406 2.65625 -7.660156 2.78125 -7.828125 C 2.957031 -8.085938 3.101562 -8.320312 3.21875 -8.53125 C 3.320312 -8.789062 3.390625 -8.921875 3.421875 -8.921875 C 3.421875 -8.921875 3.421875 -8.914062 3.421875 -8.90625 C 3.421875 -8.863281 3.390625 -8.765625 3.328125 -8.609375 C 3.253906 -8.441406 3.21875 -8.34375 3.21875 -8.3125 C 3.257812 -8.320312 3.394531 -8.523438 3.625 -8.921875 C 3.851562 -9.359375 3.992188 -9.578125 4.046875 -9.578125 C 4.046875 -9.546875 4.03125 -9.488281 4 -9.40625 C 3.976562 -9.375 3.96875 -9.34375 3.96875 -9.3125 C 3.96875 -9.300781 3.976562 -9.296875 4 -9.296875 C 4.03125 -9.296875 4.101562 -9.394531 4.21875 -9.59375 C 4.300781 -9.726562 4.34375 -9.804688 4.34375 -9.828125 C 4.34375 -9.828125 4.300781 -9.78125 4.21875 -9.6875 C 4.144531 -9.625 4.09375 -9.59375 4.0625 -9.59375 C 4.050781 -9.59375 4.046875 -9.601562 4.046875 -9.625 C 4.046875 -9.695312 4.085938 -9.769531 4.171875 -9.84375 C 4.253906 -9.925781 4.316406 -9.96875 4.359375 -9.96875 L 4.390625 -9.96875 C 4.398438 -9.96875 4.421875 -9.976562 4.453125 -10 C 4.484375 -10.03125 4.523438 -10.078125 4.578125 -10.140625 C 4.628906 -10.203125 4.679688 -10.28125 4.734375 -10.375 C 4.929688 -10.664062 5.191406 -11.007812 5.515625 -11.40625 C 5.828125 -11.769531 5.984375 -12 5.984375 -12.09375 L 5.984375 -12.140625 C 5.984375 -12.234375 6.023438 -12.359375 6.109375 -12.515625 C 6.234375 -12.679688 6.296875 -12.785156 6.296875 -12.828125 L 6.296875 -12.859375 C 6.265625 -12.859375 6.1875 -12.769531 6.0625 -12.59375 C 6.0625 -12.582031 6.050781 -12.5625 6.03125 -12.53125 C 5.863281 -12.289062 5.742188 -12.140625 5.671875 -12.078125 C 5.578125 -11.984375 5.460938 -11.84375 5.328125 -11.65625 C 5.296875 -11.5625 5.28125 -11.507812 5.28125 -11.5 C 5.28125 -11.5 5.378906 -11.597656 5.578125 -11.796875 L 5.96875 -12.1875 L 5.53125 -11.640625 C 5.289062 -11.296875 5.140625 -11.125 5.078125 -11.125 C 5.054688 -11.125 5.046875 -11.132812 5.046875 -11.15625 C 5.046875 -11.15625 5.039062 -11.15625 5.03125 -11.15625 C 4.96875 -11.15625 4.789062 -10.957031 4.5 -10.5625 L 4.46875 -10.5625 C 4.1875 -10.070312 4.03125 -9.828125 4 -9.828125 C 4 -9.828125 4 -9.832031 4 -9.84375 C 4 -9.875 4.039062 -9.96875 4.125 -10.125 C 4.207031 -10.289062 4.335938 -10.492188 4.515625 -10.734375 C 4.703125 -10.972656 4.878906 -11.195312 5.046875 -11.40625 C 5.359375 -11.800781 5.679688 -12.253906 6.015625 -12.765625 C 6.347656 -13.285156 6.582031 -13.707031 6.71875 -14.03125 C 6.863281 -14.332031 7.085938 -14.648438 7.390625 -14.984375 Z M 6.71875 -13.125 C 6.800781 -13.257812 6.84375 -13.34375 6.84375 -13.375 L 6.84375 -13.40625 C 6.84375 -13.40625 6.832031 -13.40625 6.8125 -13.40625 C 6.800781 -13.40625 6.78125 -13.382812 6.75 -13.34375 C 6.726562 -13.3125 6.695312 -13.257812 6.65625 -13.1875 C 6.625 -13.113281 6.609375 -13.054688 6.609375 -13.015625 C 6.609375 -12.992188 6.617188 -12.984375 6.640625 -12.984375 C 6.648438 -12.984375 6.675781 -13.03125 6.71875 -13.125 Z M 6.453125 -12.59375 C 6.453125 -12.613281 6.441406 -12.625 6.421875 -12.625 C 6.378906 -12.625 6.3125 -12.554688 6.21875 -12.421875 L 6.0625 -12.1875 L 6.25 -12.375 C 6.382812 -12.476562 6.453125 -12.550781 6.453125 -12.59375 Z M 4.65625 -10.578125 C 4.851562 -10.898438 4.96875 -11.0625 5 -11.0625 C 5 -11.03125 4.976562 -10.972656 4.9375 -10.890625 C 4.90625 -10.816406 4.847656 -10.722656 4.765625 -10.609375 C 4.691406 -10.492188 4.617188 -10.378906 4.546875 -10.265625 C 4.453125 -10.109375 4.390625 -10.03125 4.359375 -10.03125 C 4.359375 -10.03125 4.359375 -10.035156 4.359375 -10.046875 C 4.359375 -10.109375 4.457031 -10.285156 4.65625 -10.578125 Z M 8.65625 -10.171875 C 8.6875 -10.210938 8.703125 -10.25 8.703125 -10.28125 C 8.703125 -10.3125 8.6875 -10.34375 8.65625 -10.375 C 8.632812 -10.382812 8.625 -10.390625 8.625 -10.390625 C 8.613281 -10.390625 8.597656 -10.363281 8.578125 -10.3125 L 8.578125 -10.234375 C 8.578125 -10.171875 8.585938 -10.140625 8.609375 -10.140625 C 8.609375 -10.128906 8.613281 -10.125 8.625 -10.125 C 8.625 -10.125 8.632812 -10.140625 8.65625 -10.171875 Z M 8.109375 -9.453125 C 8.128906 -9.472656 8.140625 -9.5 8.140625 -9.53125 C 8.140625 -9.539062 8.117188 -9.5625 8.078125 -9.59375 C 8.066406 -9.613281 8.046875 -9.625 8.015625 -9.625 C 7.960938 -9.625 7.898438 -9.582031 7.828125 -9.5 C 7.796875 -9.4375 7.78125 -9.40625 7.78125 -9.40625 C 7.78125 -9.375 7.785156 -9.359375 7.796875 -9.359375 C 7.816406 -9.359375 7.828125 -9.351562 7.828125 -9.34375 C 7.828125 -9.3125 7.773438 -9.234375 7.671875 -9.109375 C 7.546875 -8.960938 7.40625 -8.765625 7.25 -8.515625 C 7.101562 -8.265625 6.988281 -8.039062 6.90625 -7.84375 C 6.832031 -7.664062 6.769531 -7.578125 6.71875 -7.578125 L 6.703125 -7.578125 C 6.671875 -7.578125 6.648438 -7.578125 6.640625 -7.578125 L 6.640625 -7.546875 C 6.648438 -7.535156 6.65625 -7.515625 6.65625 -7.484375 C 6.65625 -7.421875 6.609375 -7.359375 6.515625 -7.296875 C 6.484375 -7.265625 6.457031 -7.226562 6.4375 -7.1875 C 6.425781 -7.15625 6.421875 -7.140625 6.421875 -7.140625 L 6.421875 -7.109375 C 6.441406 -7.097656 6.453125 -7.09375 6.453125 -7.09375 C 6.453125 -7.070312 6.425781 -7.0625 6.375 -7.0625 C 6.332031 -7.0625 6.3125 -7.039062 6.3125 -7 C 6.3125 -6.988281 6.316406 -6.972656 6.328125 -6.953125 L 6.359375 -6.84375 C 6.359375 -6.820312 6.359375 -6.804688 6.359375 -6.796875 L 6.359375 -6.765625 C 6.328125 -6.765625 6.296875 -6.78125 6.265625 -6.8125 C 6.234375 -6.84375 6.210938 -6.859375 6.203125 -6.859375 C 6.203125 -6.859375 6.195312 -6.851562 6.1875 -6.84375 C 6.175781 -6.84375 6.171875 -6.832031 6.171875 -6.8125 C 6.171875 -6.800781 6.179688 -6.78125 6.203125 -6.75 C 6.234375 -6.71875 6.25 -6.679688 6.25 -6.640625 C 6.25 -6.585938 6.222656 -6.539062 6.171875 -6.5 C 6.128906 -6.46875 6.082031 -6.453125 6.03125 -6.453125 C 6.019531 -6.453125 6 -6.457031 5.96875 -6.46875 C 5.945312 -6.488281 5.9375 -6.5 5.9375 -6.5 C 5.9375 -6.5 5.9375 -6.492188 5.9375 -6.484375 C 5.9375 -6.472656 5.945312 -6.453125 5.96875 -6.421875 C 5.976562 -6.378906 5.984375 -6.34375 5.984375 -6.3125 C 5.984375 -6.269531 5.96875 -6.207031 5.9375 -6.125 L 5.875 -6.03125 C 5.875 -6.03125 5.882812 -6.046875 5.90625 -6.078125 L 5.90625 -6.109375 C 5.90625 -6.109375 5.90625 -6.113281 5.90625 -6.125 C 5.90625 -6.125 5.90625 -6.132812 5.90625 -6.15625 C 5.914062 -6.195312 5.921875 -6.234375 5.921875 -6.265625 C 5.921875 -6.285156 5.914062 -6.296875 5.90625 -6.296875 C 5.90625 -6.296875 5.90625 -6.285156 5.90625 -6.265625 C 5.820312 -6.191406 5.769531 -6.085938 5.75 -5.953125 C 5.726562 -5.828125 5.71875 -5.738281 5.71875 -5.6875 C 5.71875 -5.59375 5.734375 -5.535156 5.765625 -5.515625 C 5.796875 -5.453125 6.171875 -5.40625 6.890625 -5.375 L 7.96875 -5.328125 L 7.984375 -6.203125 C 8.015625 -6.703125 8.039062 -6.953125 8.0625 -6.953125 C 8.070312 -6.953125 8.097656 -6.90625 8.140625 -6.8125 C 8.171875 -6.707031 8.195312 -6.65625 8.21875 -6.65625 C 8.226562 -6.65625 8.234375 -6.816406 8.234375 -7.140625 L 8.234375 -7.40625 C 8.234375 -7.757812 8.210938 -7.945312 8.171875 -7.96875 C 8.140625 -7.96875 8.109375 -7.921875 8.078125 -7.828125 C 8.078125 -7.796875 8.070312 -7.78125 8.0625 -7.78125 C 8.0625 -7.78125 8.050781 -7.8125 8.03125 -7.875 L 8.03125 -8.015625 C 8.03125 -8.210938 8.046875 -8.3125 8.078125 -8.3125 L 8.109375 -8.3125 C 8.117188 -8.289062 8.128906 -8.28125 8.140625 -8.28125 C 8.160156 -8.28125 8.171875 -8.304688 8.171875 -8.359375 C 8.171875 -8.421875 8.140625 -8.457031 8.078125 -8.46875 C 8.035156 -8.488281 8.015625 -8.503906 8.015625 -8.515625 C 8.015625 -8.523438 8.046875 -8.53125 8.109375 -8.53125 C 8.148438 -8.53125 8.171875 -8.535156 8.171875 -8.546875 C 8.171875 -8.566406 8.148438 -8.617188 8.109375 -8.703125 C 8.054688 -8.765625 8.03125 -8.796875 8.03125 -8.796875 C 8.050781 -8.796875 8.066406 -8.796875 8.078125 -8.796875 C 8.097656 -8.773438 8.113281 -8.765625 8.125 -8.765625 C 8.132812 -8.765625 8.144531 -8.769531 8.15625 -8.78125 C 8.164062 -8.789062 8.171875 -8.796875 8.171875 -8.796875 C 8.171875 -8.867188 8.140625 -8.921875 8.078125 -8.953125 C 8.046875 -8.960938 8.03125 -8.976562 8.03125 -9 C 8.03125 -9.03125 8.054688 -9.078125 8.109375 -9.140625 C 8.148438 -9.210938 8.171875 -9.257812 8.171875 -9.28125 C 8.171875 -9.300781 8.15625 -9.320312 8.125 -9.34375 C 8.082031 -9.375 8.0625 -9.394531 8.0625 -9.40625 C 8.0625 -9.425781 8.078125 -9.441406 8.109375 -9.453125 Z M 3.5625 -9.15625 C 3.632812 -9.289062 3.6875 -9.359375 3.71875 -9.359375 C 3.75 -9.359375 3.765625 -9.351562 3.765625 -9.34375 C 3.765625 -9.3125 3.726562 -9.257812 3.65625 -9.1875 L 3.46875 -9 C 3.46875 -9 3.5 -9.050781 3.5625 -9.15625 Z M 3.421875 -8.171875 C 3.453125 -8.179688 3.472656 -8.207031 3.484375 -8.25 C 3.503906 -8.289062 3.515625 -8.316406 3.515625 -8.328125 C 3.515625 -8.328125 3.515625 -8.335938 3.515625 -8.359375 C 3.484375 -8.359375 3.441406 -8.3125 3.390625 -8.21875 C 3.335938 -8.125 3.3125 -8.070312 3.3125 -8.0625 L 3.3125 -8.03125 C 3.332031 -8.03125 3.367188 -8.078125 3.421875 -8.171875 Z M 2.875 -7.5 C 2.875 -7.5 2.878906 -7.5 2.890625 -7.5 C 2.910156 -7.5 2.941406 -7.507812 2.984375 -7.53125 C 3.023438 -7.5625 3.070312 -7.625 3.125 -7.71875 L 3.234375 -7.9375 Z M 8.8125 -7.390625 C 8.832031 -7.429688 8.84375 -7.476562 8.84375 -7.53125 C 8.84375 -7.5625 8.832031 -7.59375 8.8125 -7.625 C 8.800781 -7.601562 8.796875 -7.570312 8.796875 -7.53125 C 8.796875 -7.425781 8.796875 -7.375 8.796875 -7.375 Z M 3.3125 -7.390625 C 3.3125 -7.390625 3.3125 -7.394531 3.3125 -7.40625 C 3.28125 -7.40625 3.21875 -7.351562 3.125 -7.25 C 3.125 -7.238281 3.113281 -7.234375 3.09375 -7.234375 L 3.09375 -7.203125 C 3.082031 -7.191406 3.078125 -7.1875 3.078125 -7.1875 C 3.054688 -7.164062 3.046875 -7.148438 3.046875 -7.140625 C 3.035156 -7.140625 3.03125 -7.140625 3.03125 -7.140625 C 3.03125 -7.140625 3.078125 -7.171875 3.171875 -7.234375 C 3.265625 -7.304688 3.3125 -7.359375 3.3125 -7.390625 Z M 8.8125 -6.9375 C 8.832031 -6.976562 8.84375 -7.019531 8.84375 -7.0625 C 8.84375 -7.09375 8.832031 -7.117188 8.8125 -7.140625 C 8.800781 -7.140625 8.796875 -7.113281 8.796875 -7.0625 C 8.796875 -6.976562 8.796875 -6.9375 8.796875 -6.9375 Z M 2.796875 -7.109375 C 2.796875 -7.128906 2.765625 -7.140625 2.703125 -7.140625 C 2.640625 -7.140625 2.609375 -7.109375 2.609375 -7.046875 C 2.609375 -7.035156 2.613281 -7.023438 2.625 -7.015625 C 2.644531 -7.003906 2.65625 -7 2.65625 -7 C 2.675781 -7 2.691406 -7.007812 2.703125 -7.03125 C 2.765625 -7.050781 2.796875 -7.078125 2.796875 -7.109375 Z M 2.15625 -6.75 C 2.226562 -6.9375 2.296875 -7.050781 2.359375 -7.09375 C 2.359375 -7.09375 2.367188 -7.09375 2.390625 -7.09375 C 2.390625 -7.09375 2.390625 -7.082031 2.390625 -7.0625 C 2.367188 -6.988281 2.304688 -6.859375 2.203125 -6.671875 C 2.078125 -6.429688 2.007812 -6.3125 2 -6.3125 C 2 -6.3125 2 -6.316406 2 -6.328125 C 2 -6.390625 2.050781 -6.53125 2.15625 -6.75 Z M 8.171875 -5.6875 C 8.234375 -5.914062 8.265625 -6.09375 8.265625 -6.21875 C 8.265625 -6.289062 8.25 -6.359375 8.21875 -6.421875 C 8.195312 -6.453125 8.179688 -6.46875 8.171875 -6.46875 C 8.171875 -6.46875 8.171875 -6.460938 8.171875 -6.453125 C 8.140625 -6.421875 8.125 -6.304688 8.125 -6.109375 L 8.125 -5.328125 Z M 6.25 -5.046875 C 6.21875 -5.109375 6.140625 -5.148438 6.015625 -5.171875 L 5.828125 -5.1875 L 6.21875 -5.046875 L 6.015625 -5 C 5.941406 -4.988281 5.90625 -4.972656 5.90625 -4.953125 L 6.03125 -4.90625 C 6.113281 -4.90625 6.171875 -4.910156 6.203125 -4.921875 C 6.242188 -4.941406 6.265625 -4.96875 6.265625 -5 C 6.265625 -5.019531 6.257812 -5.035156 6.25 -5.046875 Z M 7.375 -1.96875 C 7.457031 -1.96875 7.507812 -1.988281 7.53125 -2.03125 C 7.5625 -2.082031 7.578125 -2.117188 7.578125 -2.140625 C 7.578125 -2.148438 7.5625 -2.15625 7.53125 -2.15625 C 7.5 -2.15625 7.4375 -2.117188 7.34375 -2.046875 C 7.300781 -1.992188 7.28125 -1.96875 7.28125 -1.96875 C 7.289062 -1.96875 7.320312 -1.96875 7.375 -1.96875 Z M 4.40625 -1.859375 C 4.375 -1.929688 4.328125 -1.96875 4.265625 -1.96875 C 4.222656 -1.96875 4.203125 -1.953125 4.203125 -1.921875 C 4.203125 -1.910156 4.207031 -1.894531 4.21875 -1.875 C 4.238281 -1.863281 4.269531 -1.847656 4.3125 -1.828125 C 4.363281 -1.816406 4.394531 -1.8125 4.40625 -1.8125 L 4.4375 -1.8125 C 4.4375 -1.832031 4.425781 -1.847656 4.40625 -1.859375 Z M 9.1875 0.203125 C 9.1875 0.140625 9.15625 0.0703125 9.09375 0 C 9.03125 -0.0625 8.984375 -0.09375 8.953125 -0.09375 C 8.929688 -0.09375 8.921875 -0.078125 8.921875 -0.046875 C 8.921875 0.0234375 8.953125 0.09375 9.015625 0.15625 C 9.078125 0.21875 9.125 0.25 9.15625 0.25 C 9.175781 0.25 9.1875 0.234375 9.1875 0.203125 Z M 9.1875 0.203125 "/></g></g></g></svg>